PathFileType	4	(X/Y/Z)	17_coords_data.trc
DataRate	CameraRate	NumFrames	NumMarkers	Units	OrigDataRate	OrigDataStartFrame	OrigNumFrames
30.0	30.0	6	21	m	30.0	1	53
Frame#	Time	THUMB_TIP	THUMB_IP	THUMB_MCP	THUMB_CMC	INDEX_TIP	INDEX_DIP	INDEX_PIP	INDEX_MCP	MIDDLE_TIP	MIDDLE_DIP	MIDDLE_PIP	MIDDLE_MCP	RING_TIP	RING_DIP	RING_PIP	RING_MCP	PINKY_TIP	PINKY_DIP	PINKY_PIP	PINKY_MCP	WRIST
X1	Y1	Z1	X2	Y2	Z2	X3	Y3	Z3	X4	Y4	Z4	X5	Y5	Z5	X6	Y6	Z6	X7	Y7	Z7	X8	Y8	Z8	X9	Y9	Z9	X10	Y10	Z10	X11	Y11	Z11	X12	Y12	Z12	X13	Y13	Z13	X14	Y14	Z14	X15	Y15	Z15	X16	Y16	Z16	X17	Y17	Z17	X18	Y18	Z18	X19	Y19	Z19	X20	Y20	Z20	X21	Y21	Z21
0	-2.749317978547796e-18	0.5416565653788232	-0.0030262623612029582	-0.12412405798545462	0.5201447378473157	-0.01054769745065931	-0.12706842386791092	0.4921688132380452	-0.01857130970742593	-0.1160326054293235	0.47992934970335266	-0.02757240598262356	-0.07409138706090268	0.502565142618798	-0.002957898645413959	-0.11630252489768908	0.5187330961041364	5.0599632271164374e-05	-0.12388844726804685	0.5282466248034006	0.022672624637146144	-0.12934249066419695	0.4915039624654164	0.031523011812233936	-0.10971385074269638	0.5059112198668909	-0.011988926508093578	-0.10102943512879156	0.5236118571776855	-0.008817656892864845	-0.1031812919593525	0.5399521228640384	0.01515437956030019	-0.10596458777322659	0.504506148843738	0.03624079556103832	-0.08878629021508633	0.5051656256426633	-0.009723067740348368	-0.08435762051532308	0.5230902645717275	-0.011512763392081515	-0.08364747353275562	0.5424567996651531	0.004131984408788814	-0.08424677622945628	0.5173735327715476	0.03232726344946846	-0.06973551178550202	0.5070940967510853	-0.021260129972899944	-0.06269648320606713	0.5231050119321319	-0.02463648601806334	-0.06772150210370534	0.5399591928788222	-0.012169301825643797	-0.06657349429515078	0.5245179894642501	0.01677899555099205	-0.05159187999282441	0.462283081001861	-0.023011742144276925	-0.051989820119430985
1	0.03333333333333339	0.5414089863053517	-0.003076105966316689	-0.12464333755009563	0.5198148983667066	-0.010465338351023035	-0.12730690862346145	0.49186579877517855	-0.018442819940515554	-0.11617013981414515	0.4798140921428943	-0.027526343616995685	-0.07419233657400193	0.5024778217461287	-0.0028043845786167587	-0.1164701091731557	0.5186489168963	8.635932273104441e-05	-0.124095021063855	0.528061544692686	0.022747484662923978	-0.12956179975726892	0.4914486448133262	0.03158268747698789	-0.1096854105565529	0.5058518701607113	-0.011856069769353272	-0.10121605168610565	0.5235530996314861	-0.008745624283599818	-0.10345024149521448	0.5398877230755442	0.015231686566674507	-0.10622119644435185	0.5045072358079058	0.03623026677050423	-0.08880199235438838	0.5050835811376989	-0.010016257913843751	-0.08421268925887693	0.5230439450054457	-0.011535404274173766	-0.08386987141507024	0.5424468720288035	0.004064133851642837	-0.08447054785662994	0.5174397969050313	0.032242073171636076	-0.06979503207582005	0.507110559319885	-0.021465373729760207	-0.06303716483256755	0.5231800752640167	-0.024701828204237386	-0.06796626411701423	0.5400350207190127	-0.012234548674365797	-0.0668305820166204	0.5246108230480394	0.016634202262189257	-0.05167892215474723	0.462283081001861	-0.023011742144276925	-0.051989820119430985
2	0.06666666666666676	0.5412245506665986	-0.0030849728613956406	-0.12502330278203153	0.5195643804963915	-0.010352577532986351	-0.12747665773701589	0.4916336559504628	-0.018303628020848284	-0.11627507648797253	0.47971906358590366	-0.02747535115823685	-0.07427731483955269	0.502420061693731	-0.0026297660307911253	-0.11657241432401663	0.5186008733876469	0.00018529020519608697	-0.12420502798607666	0.5279471376731109	0.02288513289207772	-0.1296248359990123	0.4913992698094627	0.03168489598942259	-0.10961349876103821	0.5058037708800289	-0.011710726392852866	-0.10133559829944908	0.5235095954783017	-0.008654486807278983	-0.10360786036417019	0.5398454572666418	0.015326403060708094	-0.10634027518841013	0.5045069176688537	0.036258572794781174	-0.08875676557515241	0.5050363736006335	-0.01018567625451483	-0.08409491489326759	0.5230144038152271	-0.011520154480471945	-0.0839969482274836	0.5424377323449313	0.0040548926738798174	-0.08457331093177592	0.5174753196503956	0.032211204505197655	-0.06978071513099496	0.5071012078210498	-0.021637850492333577	-0.06327881947931838	0.5232228408763419	-0.024744677794282577	-0.06812036590028542	0.5400751056182013	-0.012274816607046102	-0.06697330267564061	0.5246706205680797	0.01654019561004383	-0.051699784342606026	0.462283081001861	-0.023011742144276925	-0.051989820119430985
3	0.10000000000000014	0.5410971310892495	-0.0030598501608922746	-0.12528129519506861	0.5193838590532164	-0.010216315604229087	-0.12758755186932452	0.49146395684471433	-0.018157044598948624	-0.11635172151727224	0.47964209837660876	-0.027421244075120255	-0.07434805179157108	0.5023883048206823	-0.0024406561720065056	-0.11661818101807109	0.5185844990427046	0.0003352178000813888	-0.12423249756084881	0.5278948689400901	0.023072569561240153	-0.12955600019193592	0.4913561294149944	0.031821218950486174	-0.10950562010124279	0.5057657142228892	-0.011556967453872247	-0.10139647506973909	0.5234796718159063	-0.008549439622132948	-0.10367034462054944	0.539823102017097	0.015433086177198851	-0.10634247776528458	0.5045061625488028	0.03631871557970978	-0.08866050411826754	0.5050130156300846	-0.01025404029518806	-0.08399486565613276	0.5229993562489836	-0.011474418397374841	-0.08404207189141194	0.5424297804943706	0.004093386109547348	-0.08457316084679911	0.5174855271105545	0.03222558227721661	-0.06970424710342982	0.5070710336593642	-0.021781080176139445	-0.06343308055918381	0.5232385430208992	-0.0247691511953414	-0.06819575550388451	0.5400853243904157	-0.012294805373126105	-0.06701733588613434	0.5247025761389373	0.016489467501866972	-0.05166415568496477	0.4622830810018608	-0.023011742144276925	-0.051989820119430985
4	0.13333333333333353	0.5410194627132368	-0.0030080591703303128	-0.12543455421707173	0.5192635964918504	-0.010063446998836212	-0.1276490039334824	0.4913479847815624	-0.018006408041030264	-0.11640409429744639	0.47958112839844635	-0.027365830336273045	-0.0744060907120564	0.5023785991564165	-0.00224326311440326	-0.11661599897380989	0.5185945842205287	0.0005244600971415769	-0.12419105914682244	0.5278952459425349	0.023297025014141215	-0.1293792969626758	0.4913195262208403	0.031983254347204615	-0.10936924346915744	0.5057363631631153	-0.011398884879531113	-0.10140739259173809	0.5234613112347839	-0.008435578115044917	-0.10365350676430335	0.5398180466481365	0.015546383723530899	-0.10624816724125813	0.5045058976098044	0.03640359163623197	-0.08852313044634608	0.505006434981533	-0.010241340792262688	-0.08390711254773378	0.5229962194372896	-0.011405491414169133	-0.0840185062860446	0.5424230544009817	0.004168767411270036	-0.08448810646886099	0.5174756782497472	0.032275983077266646	-0.06957724852325683	0.5070248466692087	-0.021898348593626826	-0.06351163520433004	0.523232155605755	-0.024779276103425008	-0.06820454408035082	0.5400712504547515	-0.012299146254670767	-0.06697846797148554	0.5247116980228315	0.016474284409353168	-0.051581803140629684	0.4622830810018609	-0.023011742144276925	-0.051989820119430985
5	0.1666666666666669	0.5409834691178323	-0.002937142506683199	-0.12550020661855008	0.5191935949982127	-0.009900840782295917	-0.1276700665627313	0.49127682607443957	-0.017855077097497674	-0.11643600507551419	0.47953415722270143	-0.02731093175806454	-0.07445283534195718	0.5023867985975603	-0.0020436222092716783	-0.1165744093168975	0.5186255153482073	0.0007415480222133786	-0.12409417693790167	0.5279382934030443	0.023545887332398374	-0.1291185282917879	0.49128979183582233	0.03216262859548702	-0.10921186616871176	0.5057142785799785	-0.011240597982927314	-0.10137723135866078	0.5234522848876932	-0.008317920481086483	-0.10357292907185026	0.5398274559330074	0.015661036496179004	-0.10607751397142007	0.5045070496065157	0.03650606809072765	-0.08835460575200552	0.505011870406636	-0.01016550552366513	-0.08382918756636731	0.5230022464903364	-0.011320584071812134	-0.0839394686374168	0.5424174139511774	0.004270243936373541	-0.08433612149153505	0.5174509711528525	0.032353121119800154	-0.069411324102674	0.5069673552078949	-0.021992722137399	-0.06352614337292134	0.5232084782097527	-0.024778998814287134	-0.0681589163997765	0.5400382707291925	-0.012292393559377945	-0.06687252922606862	0.5247028924963556	0.016486790592999956	-0.05146252646878949	0.4622830810018608	-0.023011742144276925	-0.05198982011943096
